<svg xmlns="http://www.w3.org/2000/svg" width="1600" height="900" viewBox="0 0 1600 900" role="img">
<defs><marker id="ah91" viewBox="0 0 10 10" refX="9" refY="5" markerWidth="6.5" markerHeight="6.5" orient="auto-start-reverse"><path d="M0,0 L10,5 L0,10 z" fill="#111111"/></marker></defs>
<rect width="1600" height="900" fill="#F7F7F5"/>
<text x="56.0" y="72.0" font-family="Inter, 'Helvetica Neue', Helvetica, Arial, sans-serif" font-size="38" fill="#111111" font-weight="600" text-anchor="start">Manual transcription versus artefact-linked assembly</text>
<text x="56.0" y="112.0" font-family="Inter, 'Helvetica Neue', Helvetica, Arial, sans-serif" font-size="22" fill="#3A3A3A" font-weight="400" text-anchor="start">A copy does not update when its source changes.</text>
<text x="70.0" y="200.0" font-family="Inter, 'Helvetica Neue', Helvetica, Arial, sans-serif" font-size="18" fill="#999999" font-weight="600" text-anchor="start">conventional</text>
<path d="M100,250.64 a85.0,10.64 0 0 1 170,0 v54.72 a85.0,10.64 0 0 1 -170,0 z" fill="none" stroke="#999999" stroke-width="2.2"/>
<path d="M100,250.64 a85.0,10.64 0 0 0 170,0" fill="none" stroke="#999999" stroke-width="2.2"/>
<text x="185.0" y="271.3" font-family="Inter, 'Helvetica Neue', Helvetica, Arial, sans-serif" font-size="18" fill="#111111" font-weight="400" text-anchor="middle">analysis</text>
<text x="185.0" y="295.4" font-family="Inter, 'Helvetica Neue', Helvetica, Arial, sans-serif" font-size="18" fill="#111111" font-weight="400" text-anchor="middle">outputs</text>
<rect x="430.0" y="246.0" width="170.0" height="64.0" rx="10" fill="none" stroke="#999999" stroke-width="2.2"/>
<text x="515.0" y="284.1" font-family="Inter, 'Helvetica Neue', Helvetica, Arial, sans-serif" font-size="18" fill="#111111" font-weight="400" text-anchor="middle">figure</text>
<line x1="272.0" y1="278.0" x2="424.0" y2="278.0" stroke="#111111" stroke-width="2.1" marker-end="url(#ah91)"/>
<text x="348.0" y="262.0" font-family="Inter, 'Helvetica Neue', Helvetica, Arial, sans-serif" font-size="13" fill="#3A3A3A" font-weight="400" text-anchor="middle">hand-copied</text>
<rect x="760.0" y="246.0" width="190.0" height="64.0" rx="10" fill="none" stroke="#999999" stroke-width="2.2"/>
<text x="855.0" y="284.1" font-family="Inter, 'Helvetica Neue', Helvetica, Arial, sans-serif" font-size="18" fill="#111111" font-weight="400" text-anchor="middle">manuscript</text>
<line x1="600.0" y1="278.0" x2="754.0" y2="278.0" stroke="#111111" stroke-width="2.1" marker-end="url(#ah91)"/>
<text x="676.0" y="262.0" font-family="Inter, 'Helvetica Neue', Helvetica, Arial, sans-serif" font-size="13" fill="#3A3A3A" font-weight="400" text-anchor="middle">typed by hand</text>
<polygon points="348,326.0 408.0,352 348,378.0 288.0,352" fill="none" stroke="#D55E00" stroke-width="2.4"/>
<text x="348.0" y="358.1" font-family="Inter, 'Helvetica Neue', Helvetica, Arial, sans-serif" font-size="18" fill="#111111" font-weight="400" text-anchor="middle">risk</text>
<polygon points="676,326.0 736.0,352 676,378.0 616.0,352" fill="none" stroke="#D55E00" stroke-width="2.4"/>
<text x="676.0" y="358.1" font-family="Inter, 'Helvetica Neue', Helvetica, Arial, sans-serif" font-size="18" fill="#111111" font-weight="400" text-anchor="middle">risk</text>
<rect x="1010.0" y="249.4" width="3.4" height="75.0" fill="#D55E00"/>
<text x="1022.0" y="262.0" font-family="Inter, 'Helvetica Neue', Helvetica, Arial, sans-serif" font-size="14" fill="#D55E00" font-weight="400" text-anchor="start">each copy can silently</text>
<text x="1022.0" y="280.8" font-family="Inter, 'Helvetica Neue', Helvetica, Arial, sans-serif" font-size="14" fill="#D55E00" font-weight="400" text-anchor="start">diverge - a copy does not</text>
<text x="1022.0" y="299.5" font-family="Inter, 'Helvetica Neue', Helvetica, Arial, sans-serif" font-size="14" fill="#D55E00" font-weight="400" text-anchor="start">update when its source</text>
<text x="1022.0" y="318.3" font-family="Inter, 'Helvetica Neue', Helvetica, Arial, sans-serif" font-size="14" fill="#D55E00" font-weight="400" text-anchor="start">changes</text>
<text x="100.0" y="410.0" font-family="Inter, 'Helvetica Neue', Helvetica, Arial, sans-serif" font-size="14" fill="#3A3A3A" font-weight="400" text-anchor="start">a figure generated from an earlier data file than</text>
<text x="100.0" y="428.8" font-family="Inter, 'Helvetica Neue', Helvetica, Arial, sans-serif" font-size="14" fill="#3A3A3A" font-weight="400" text-anchor="start">the table beside it; a value updated in the table</text>
<text x="100.0" y="447.5" font-family="Inter, 'Helvetica Neue', Helvetica, Arial, sans-serif" font-size="14" fill="#3A3A3A" font-weight="400" text-anchor="start">but not in the text</text>
<text x="70.0" y="500.0" font-family="Inter, 'Helvetica Neue', Helvetica, Arial, sans-serif" font-size="18" fill="#3A3A3A" font-weight="600" text-anchor="start">artefact-linked</text>
<path d="M100,550.64 a85.0,10.64 0 0 1 170,0 v54.72 a85.0,10.64 0 0 1 -170,0 z" fill="none" stroke="#56B4E9" stroke-width="2.2"/>
<path d="M100,550.64 a85.0,10.64 0 0 0 170,0" fill="none" stroke="#56B4E9" stroke-width="2.2"/>
<text x="185.0" y="571.3" font-family="Inter, 'Helvetica Neue', Helvetica, Arial, sans-serif" font-size="18" fill="#111111" font-weight="400" text-anchor="middle">analysis</text>
<text x="185.0" y="595.4" font-family="Inter, 'Helvetica Neue', Helvetica, Arial, sans-serif" font-size="18" fill="#111111" font-weight="400" text-anchor="middle">outputs</text>
<rect x="400.0" y="544.0" width="260.0" height="66.0" rx="10" fill="none" stroke="#009E73" stroke-width="2.2"/>
<text x="530.0" y="571.1" font-family="Inter, 'Helvetica Neue', Helvetica, Arial, sans-serif" font-size="18" fill="#111111" font-weight="400" text-anchor="middle">figure / table</text>
<text x="530.0" y="595.2" font-family="Inter, 'Helvetica Neue', Helvetica, Arial, sans-serif" font-size="18" fill="#111111" font-weight="400" text-anchor="middle">generation</text>
<line x1="272.0" y1="578.0" x2="394.0" y2="578.0" stroke="#111111" stroke-width="2.1" marker-end="url(#ah91)"/>
<rect x="742.0" y="552.0" width="36.0" height="36.0" rx="6" fill="none" stroke="#E69F00" stroke-width="2.3"/>
<path d="M752.8,571.8 a7.56,7.56 0 1 1 8.64,6.12" fill="none" stroke="#E69F00" stroke-width="2"/>
<text x="760.0" y="626.0" font-family="Inter, 'Helvetica Neue', Helvetica, Arial, sans-serif" font-size="14" fill="#3A3A3A" font-weight="400" text-anchor="middle">assembly agent</text>
<line x1="660.0" y1="578.0" x2="736.0" y2="578.0" stroke="#111111" stroke-width="2.1" marker-end="url(#ah91)"/>
<rect x="880.0" y="544.0" width="210.0" height="66.0" rx="10" fill="none" stroke="#111111" stroke-width="2.2"/>
<text x="985.0" y="583.1" font-family="Inter, 'Helvetica Neue', Helvetica, Arial, sans-serif" font-size="18" fill="#111111" font-weight="400" text-anchor="middle">manuscript draft</text>
<line x1="784.0" y1="578.0" x2="874.0" y2="578.0" stroke="#111111" stroke-width="2.1" marker-end="url(#ah91)"/>
<circle cx="1190" cy="554.4" r="9.6" fill="none" stroke="#0072B2" stroke-width="2.3"/>
<path d="M1174,579.2 a16,14.4 0 0 1 32,0" fill="none" stroke="#0072B2" stroke-width="2.3"/>
<text x="1190.0" y="624.0" font-family="Inter, 'Helvetica Neue', Helvetica, Arial, sans-serif" font-size="14" fill="#111111" font-weight="400" text-anchor="middle">author control</text>
<line x1="1090.0" y1="578.0" x2="1166.0" y2="578.0" stroke="#111111" stroke-width="2.1" marker-end="url(#ah91)"/>
<text x="1290.0" y="548.0" font-family="Inter, 'Helvetica Neue', Helvetica, Arial, sans-serif" font-size="14" fill="#3A3A3A" font-weight="400" text-anchor="start">the author accepts,</text>
<text x="1290.0" y="566.8" font-family="Inter, 'Helvetica Neue', Helvetica, Arial, sans-serif" font-size="14" fill="#3A3A3A" font-weight="400" text-anchor="start">edits or rejects -</text>
<text x="1290.0" y="585.5" font-family="Inter, 'Helvetica Neue', Helvetica, Arial, sans-serif" font-size="14" fill="#3A3A3A" font-weight="400" text-anchor="start">nothing lands unread</text>
<text x="400.0" y="660.0" font-family="Inter, 'Helvetica Neue', Helvetica, Arial, sans-serif" font-size="14" fill="#0072B2" font-weight="400" text-anchor="start">one source, regenerated</text>
<text x="56.0" y="860.0" font-family="Inter, 'Helvetica Neue', Helvetica, Arial, sans-serif" font-size="13" fill="#999999" font-weight="400" text-anchor="start">A number in the abstract now traces to a computation, not a recollection.</text>
</svg>
